<svg t="1570698746730" class="icon" viewBox="0 0 1024 1024" version="1.1" xmlns="http://www.w3.org/2000/svg" p-id="3581" width="200" height="200"><path d="M643.57333333 533.504c-26.03733333-24.14933333-59.78666667-42.02666667-101.728-53.62133333-41.94133333-11.104-86.304-14.48533333-134.02666666-9.65333334-72.32 7.73333333-132.58666667 30.432-180.26666667 69.55733334-47.73333333 38.64533333-69.42933333 82.13333333-64.608 129.94133333 2.90133333 31.40266667 17.35466667 59.41333333 43.392 83.57333333s59.78666667 42.02666667 101.728 53.62133334 86.304 14.93333333 134.03733333 10.13333333c72.32-7.72266667 132.58666667-30.42133333 180.26666667-69.55733333s69.41866667-82.60266667 64.56533333-130.42133334c-2.85866667-31.40266667-17.32266667-59.41333333-43.36-83.57333333z" fill="#FFFFFF" p-id="3582"></path><path d="M533.16266667 602.58133333c-15.424-29.46133333-40.97066667-48.78933333-77.13066667-58.44266666-34.22933333-9.184-68.46933333-5.80266667-102.69866667 9.17333333q-50.624 22.464-73.76 68.11733333c-15.43466667 30.93333333-16.39466667 61.344-3.38133333 91.73333334 13.024 29.952 37.13066667 50.72 71.84 61.86666666 36.16 12.07466667 72.8 10.144 109.44-5.80266666 36.64-15.456 62.67733333-40.096 77.14133333-73.41866667 14.944-32.84266667 14.464-63.75466667-1.45066666-93.22666667z m-129.20533334 100c-7.232 11.104-17.35466667 18.83733333-30.85866666 23.66933334q-19.52 6.50666667-36.16-1.45066667c-11.08266667-5.33333333-18.31466667-13.52533333-21.20533334-24.64-2.90133333-11.59466667-0.97066667-22.69866667 6.26133334-33.81333333 6.752-11.11466667 16.87466667-18.35733333 29.408-22.69866667a50.31466667 50.31466667 0 0 1 35.68 0.48c11.57333333 4.832 18.80533333 13.04533333 22.176 24.64s1.408 22.69866667-5.30133334 33.81333333zM449.76 643.2a18.42133333 18.42133333 0 0 1-11.09333333 9.664 22.99733333 22.99733333 0 0 1-13.984 0c-9.6-4.832-11.56266667-12.07466667-6.26133334-22.21866667a21.06666667 21.06666667 0 0 1 24.58666667-9.664 14.848 14.848 0 0 1 8.68266667 9.184c1.44 4.29866667 0.48 8.65066667-1.93066667 13.03466667z" fill="#040000" p-id="3583"></path><path d="M820.512 561.52533333c-11.08266667-17.38666667-24.10666667-30.432-39.05066667-40.096a207.46666667 207.46666667 0 0 0-50.13333333-23.18933333c-3.85066667-1.45066667-6.752-2.41066667-8.192-2.89066667a61.312 61.312 0 0 1-5.792-3.872c-2.4-1.93066667-3.37066667-3.86133333-2.4-6.272a30.67733333 30.67733333 0 0 0 2.4-9.664c14.464-37.68533333 14.464-66.656 0-87.46666666-14.93333333-19.808-40.01066667-29.952-74.66666667-29.952s-74.73066667 9.664-120.05333333 28.98133333l-2.89066667 0.97066667a27.30666667 27.30666667 0 0 1-6.752 1.93066666 12.27733333 12.27733333 0 0 1-7.232 0.48 6.08 6.08 0 0 1-4.82133333-3.38133333c-0.96-1.93066667-0.96-5.33333333 0.48-9.65333333 14.93333333-47.33866667 11.57333333-81.64266667-9.6-102.4-23.616-24.16-64.11733333-25.12-120.04266667-3.38133334C315.24266667 293.90933333 259.808 332.55466667 204.8 387.62666667c-41.46133333 42.02666667-73.77066667 84.05333333-96.42666667 126.56S74.66666667 596.78933333 74.66666667 634.464c0 35.264 10.60266667 67.62666667 31.81866666 98.06933333q31.81866667 44.91733333 83.89333334 73.89866667c34.22933333 19.328 73.76 34.304 117.152 45.408A538.82666667 538.82666667 0 0 0 441.6 868.26666667c45.80266667-0.48 90.15466667-5.33333333 132.096-15.456 42.432-10.144 79.072-23.66933333 110.41066667-40.53333334a409.44 409.44 0 0 0 82.44266666-57.48266666c23.14666667-21.25866667 40.98133333-43.968 53.03466667-67.2 12.05333333-23.66933333 17.83466667-46.37866667 17.83466667-68.59733334a105.33333333 105.33333333 0 0 0-16.90666667-57.472zM622.35733333 747.49866667c-47.72266667 39.136-107.98933333 61.86666667-180.26666666 69.55733333-47.73333333 4.832-92.08533333 1.45066667-134.03733334-10.13333333s-75.73333333-29.472-101.728-53.62133334-40.53333333-52.17066667-43.392-83.57333333c-4.82133333-47.81866667 16.87466667-91.296 64.608-129.94133333 47.73333333-39.12533333 108-61.86666667 180.26666667-69.55733334 47.72266667-4.832 92.08533333-1.45066667 134.02666667 9.65333334 41.94133333 11.59466667 75.73333333 29.472 101.728 53.62133333s40.53333333 52.17066667 43.392 83.57333333c4.832 47.81866667-16.864 91.296-64.59733334 130.42133334z" fill="#CD281E" p-id="3584"></path><path d="M801.22666667 313.23733333c13.504 15.456 22.66666667 33.32266667 26.51733333 53.13066667s2.89066667 39.12533333-3.37066667 57.48266667c-2.41066667 7.73333333-7.232 13.04533333-14.464 16.90666666-7.232 3.38133333-14.464 4.352-21.696 1.93066667a25.78133333 25.78133333 0 0 1-16.39466666-14.48533333c-3.37066667-7.24266667-4.34133333-14.496-1.93066667-21.73866667 6.272-20.77866667 2.41066667-38.64533333-11.57333333-54.58133333q-21.67466667-23.2-52.064-17.39733334a30.25066667 30.25066667 0 0 1-22.176-3.81866666c-6.752-4.352-11.09333333-10.144-12.05333334-18.35733334-1.45066667-7.73333333-0.48-14.93333333 3.86133334-21.73866666s10.12266667-11.11466667 17.83466666-12.55466667a112.32 112.32 0 0 1 107.50933334 35.264z" fill="#DA761E" p-id="3585"></path><path d="M889.46133333 233.04533333a224 224 0 0 1 54.95466667 109.17333334c8.20266667 41.536 6.272 80.672-6.74133333 118.4a35.2 35.2 0 0 1-16.39466667 19.808c-8.192 4.34133333-16.39466667 4.832-25.6 1.93066666a31.936 31.936 0 0 1-19.28533333-16.90666666c-4.33066667-8.21333333-4.82133333-16.42666667-2.41066667-25.6 9.16266667-26.57066667 10.66666667-55.072 4.82133333-84.53333334a157.51466667 157.51466667 0 0 0-39.05066666-77.29066666c-20.26666667-22.70933333-44.352-38.16533333-72.32-46.85866667a166.90133333 166.90133333 0 0 0-84.37333334-4.352 32.256 32.256 0 0 1-25.54666666-4.832c-7.712-4.82133333-12.53333333-12.07466667-14.464-21.248s-0.48-17.39733333 4.82133333-25.12A31.75466667 31.75466667 0 0 1 669.13066667 161.06666667c40.01066667-8.69333333 79.552-6.76266667 119.08266666 5.80266666 39.05066667 12.55466667 72.8 34.29333333 101.248 66.13333334z" fill="#DA761E" p-id="3586"></path></svg>